<svg xmlns="http://www.w3.org/2000/svg" xmlns:xlink="http://www.w3.org/1999/xlink" width="500" zoomAndPan="magnify" viewBox="0 0 375 374.999991" height="500" preserveAspectRatio="xMidYMid meet" version="1.0"><defs><g/><clipPath id="9e42ba31a9"><rect x="0" width="144" y="0" height="263"/></clipPath></defs><g fill="#001b3d" fill-opacity="0.4"><g transform="translate(59.588578, 271.156011)"><g><path d="M 152.15625 -143.890625 L 152.15625 0 L 133.796875 0 L 133.796875 -113.375 L 92.71875 -28.6875 L 75.96875 -28.6875 L 34.890625 -113.609375 L 34.890625 0 L 16.53125 0 L 16.53125 -143.890625 L 41.078125 -143.890625 L 84.6875 -52.328125 L 128.515625 -143.890625 Z M 152.15625 -143.890625 "/></g></g></g><g fill="#661414" fill-opacity="1"><g transform="translate(55.73425, 267.301685)"><g><path d="M 152.15625 -143.890625 L 152.15625 0 L 133.796875 0 L 133.796875 -113.375 L 92.71875 -28.6875 L 75.96875 -28.6875 L 34.890625 -113.609375 L 34.890625 0 L 16.53125 0 L 16.53125 -143.890625 L 41.078125 -143.890625 L 84.6875 -52.328125 L 128.515625 -143.890625 Z M 152.15625 -143.890625 "/></g></g></g><g transform="matrix(1, 0, 0, 1, 169, 65)"><g clip-path="url(#9e42ba31a9)"><g fill="#001b3d" fill-opacity="0.4"><g transform="translate(4.409331, 206.788796)"><g><path d="M 18.109375 0 L 18.109375 -143.96875 L 38.171875 -143.96875 L 38.171875 -75.265625 C 46.316406 -78.023438 54.207031 -81.726562 61.84375 -86.375 C 69.476562 -91.03125 76.492188 -96.410156 82.890625 -102.515625 C 89.285156 -108.628906 94.8125 -115.210938 99.46875 -122.265625 C 104.125 -129.316406 107.613281 -136.550781 109.9375 -143.96875 L 132.1875 -143.96875 C 129.425781 -135.539062 125.71875 -127.613281 121.0625 -120.1875 C 116.414062 -112.769531 111.109375 -106.007812 105.140625 -99.90625 C 99.179688 -93.800781 92.925781 -88.457031 86.375 -83.875 C 79.832031 -79.289062 73.289062 -75.691406 66.75 -73.078125 L 66.75 -70.234375 C 74.601562 -70.234375 81.507812 -69.21875 87.46875 -67.1875 C 93.4375 -65.15625 98.671875 -62.210938 103.171875 -58.359375 C 107.679688 -54.503906 111.644531 -49.8125 115.0625 -44.28125 C 118.488281 -38.757812 121.582031 -32.429688 124.34375 -25.296875 L 133.5 0 L 111.03125 0 L 105.140625 -19.203125 C 102.085938 -27.773438 98.488281 -35.078125 94.34375 -41.109375 C 90.195312 -47.148438 84.742188 -51.734375 77.984375 -54.859375 C 71.222656 -57.984375 62.242188 -59.546875 51.046875 -59.546875 L 38.171875 -59.546875 L 38.171875 0 Z M 18.109375 0 "/></g></g></g><g fill="#661414" fill-opacity="1"><g transform="translate(0.745919, 203.125383)"><g><path d="M 18.109375 0 L 18.109375 -143.96875 L 38.171875 -143.96875 L 38.171875 -75.265625 C 46.316406 -78.023438 54.207031 -81.726562 61.84375 -86.375 C 69.476562 -91.03125 76.492188 -96.410156 82.890625 -102.515625 C 89.285156 -108.628906 94.8125 -115.210938 99.46875 -122.265625 C 104.125 -129.316406 107.613281 -136.550781 109.9375 -143.96875 L 132.1875 -143.96875 C 129.425781 -135.539062 125.71875 -127.613281 121.0625 -120.1875 C 116.414062 -112.769531 111.109375 -106.007812 105.140625 -99.90625 C 99.179688 -93.800781 92.925781 -88.457031 86.375 -83.875 C 79.832031 -79.289062 73.289062 -75.691406 66.75 -73.078125 L 66.75 -70.234375 C 74.601562 -70.234375 81.507812 -69.21875 87.46875 -67.1875 C 93.4375 -65.15625 98.671875 -62.210938 103.171875 -58.359375 C 107.679688 -54.503906 111.644531 -49.8125 115.0625 -44.28125 C 118.488281 -38.757812 121.582031 -32.429688 124.34375 -25.296875 L 133.5 0 L 111.03125 0 L 105.140625 -19.203125 C 102.085938 -27.773438 98.488281 -35.078125 94.34375 -41.109375 C 90.195312 -47.148438 84.742188 -51.734375 77.984375 -54.859375 C 71.222656 -57.984375 62.242188 -59.546875 51.046875 -59.546875 L 38.171875 -59.546875 L 38.171875 0 Z M 18.109375 0 "/></g></g></g></g></g></svg>